<svg width="100%" height="100%" viewBox="0 0 214 209" version="1.1" xmlns="http://www.w3.org/2000/svg" xmlns:xlink="http://www.w3.org/1999/xlink" xml:space="preserve" xmlns:serif="http://www.serif.com/" style="fill-rule:evenodd;clip-rule:evenodd;stroke-linejoin:round;stroke-miterlimit:2;">
    <title id="title">GDG Toledo logo</title>
    <g transform="matrix(1,0,0,1,-276.461,0)">
        <g transform="matrix(0.489025,0,0,1,281.972,218.197)">
            <rect id="GDG-colorangle" serif:id="GDG colorangle" x="-11.269" y="-218.197" width="437.407" height="208.32" style="fill:none;"/>
            <clipPath id="_clip1">
                <rect id="GDG-colorangle1" serif:id="GDG colorangle" x="-11.269" y="-218.197" width="437.407" height="208.32"/>
            </clipPath>
            <g clip-path="url(#_clip1)">
                <g transform="matrix(1.96223,0,0,0.991377,-187.865,-254.13)">
                    <g transform="matrix(0.769112,0,0,0.373255,-63.8618,-46.1034)">
                        <path d="M273.418,401.046C267.205,401.046 261.483,398.04 256.254,392.028C251.025,386.016 246.873,377.734 243.797,367.182C240.721,356.63 239.183,344.974 239.183,332.214C239.183,319.453 240.721,307.797 243.797,297.245C246.873,286.693 251.025,278.411 256.254,272.399C261.483,266.387 267.205,263.381 273.418,263.381C278.278,263.381 282.846,265.099 287.121,268.534C291.397,271.97 294.919,276.816 297.687,283.074L292.058,294.3C289.966,289.147 287.29,285.19 284.03,282.43C280.769,279.669 277.263,278.289 273.51,278.289C268.835,278.289 264.482,280.528 260.453,285.006C256.424,289.485 253.194,295.803 250.764,303.963C248.334,312.122 247.119,321.539 247.119,332.214C247.119,342.888 248.334,352.305 250.764,360.464C253.194,368.624 256.439,374.942 260.499,379.421C264.559,383.899 268.896,386.138 273.51,386.138C277.94,386.138 281.646,384.758 284.63,381.997C287.613,379.237 290.182,375.587 292.335,371.047C293.934,367.611 295.226,363.47 296.211,358.624C297.195,353.777 297.81,348.409 298.056,342.52L273.603,342.52L273.603,327.98L305.346,327.98C305.654,331.416 305.807,334.606 305.807,337.551C305.807,345.649 305.161,353.532 303.87,361.2C302.578,368.869 300.517,375.587 297.687,381.353C291.597,394.482 283.507,401.046 273.418,401.046Z" style="fill:rgb(108,109,109);"/>
                    </g>
                    <g transform="matrix(0.769112,0,0,0.373255,-63.8618,-46.1034)">
                        <path d="M317.434,266.326L337.366,266.326C344.133,266.326 350.039,269.117 355.084,274.7C360.128,280.282 364.004,288.043 366.711,297.981C369.417,307.92 370.771,319.33 370.771,332.214C370.771,345.097 369.417,356.507 366.711,366.446C364.004,376.384 360.128,384.145 355.084,389.727C350.039,395.31 344.133,398.101 337.366,398.101L317.434,398.101L317.434,266.326ZM337.366,383.194C345.179,383.194 351.377,378.715 355.96,369.758C360.543,360.802 362.835,348.287 362.835,332.214C362.835,316.14 360.543,303.625 355.96,294.669C351.377,285.712 345.179,281.233 337.366,281.233L325.186,281.233L325.186,383.194L337.366,383.194Z" style="fill:rgb(108,109,109);"/>
                    </g>
                    <g transform="matrix(0.769112,0,0,0.373255,-63.8618,-46.1034)">
                        <path d="M413.311,401.046C407.097,401.046 401.376,398.04 396.147,392.028C390.918,386.016 386.766,377.734 383.69,367.182C380.614,356.63 379.076,344.974 379.076,332.214C379.076,319.453 380.614,307.797 383.69,297.245C386.766,286.693 390.918,278.411 396.147,272.399C401.376,266.387 407.097,263.381 413.311,263.381C418.171,263.381 422.739,265.099 427.014,268.534C431.29,271.97 434.812,276.816 437.58,283.074L431.951,294.3C429.859,289.147 427.183,285.19 423.923,282.43C420.662,279.669 417.156,278.289 413.403,278.289C408.728,278.289 404.375,280.528 400.346,285.006C396.316,289.485 393.087,295.803 390.657,303.963C388.227,312.122 387.012,321.539 387.012,332.214C387.012,342.888 388.227,352.305 390.657,360.464C393.087,368.624 396.332,374.942 400.392,379.421C404.452,383.899 408.789,386.138 413.403,386.138C417.832,386.138 421.539,384.758 424.523,381.997C427.506,379.237 430.075,375.587 432.228,371.047C433.827,367.611 435.119,363.47 436.103,358.624C437.088,353.777 437.703,348.409 437.949,342.52L413.495,342.52L413.495,327.98L445.239,327.98C445.546,331.416 445.7,334.606 445.7,337.551C445.7,345.649 445.054,353.532 443.762,361.2C442.471,368.869 440.41,375.587 437.58,381.353C431.49,394.482 423.4,401.046 413.311,401.046Z" style="fill:rgb(108,109,109);"/>
                    </g>
                </g>
                <g transform="matrix(1.26625,0,0,1.26625,-60.8029,35.9779)">
                    <g transform="matrix(0.563049,0,0,0.138055,-132.605,-177.815)">
                        <path d="M488.609,281.233L470.062,281.233L470.062,266.326L514.908,266.326L514.908,281.233L496.453,281.233L496.453,398.101L488.609,398.101L488.609,281.233Z" style="fill:rgb(108,109,109);fill-rule:nonzero;"/>
                    </g>
                    <g transform="matrix(0.563049,0,0,0.138055,-132.605,-177.815)">
                        <path d="M537.517,401.046C532.903,401.046 528.75,398.837 525.059,394.42C521.368,390.003 518.492,383.991 516.431,376.384C514.37,368.777 513.34,360.372 513.34,351.17C513.34,341.968 514.37,333.563 516.431,325.956C518.492,318.349 521.368,312.337 525.059,307.92C528.75,303.503 532.903,301.294 537.517,301.294C542.13,301.294 546.283,303.503 549.974,307.92C553.665,312.337 556.541,318.349 558.602,325.956C560.663,333.563 561.693,341.968 561.693,351.17C561.693,360.372 560.663,368.777 558.602,376.384C556.541,383.991 553.665,390.003 549.974,394.42C546.283,398.837 542.13,401.046 537.517,401.046ZM537.517,386.875C540.408,386.875 543.099,385.433 545.591,382.55C548.082,379.666 550.082,375.525 551.589,370.127C553.096,364.728 553.85,358.409 553.85,351.17C553.85,343.931 553.096,337.612 551.589,332.214C550.082,326.815 548.082,322.674 545.591,319.791C543.099,316.907 540.408,315.465 537.517,315.465C534.625,315.465 531.918,316.907 529.396,319.791C526.874,322.674 524.859,326.815 523.352,332.214C521.845,337.612 521.091,343.931 521.091,351.17C521.091,358.409 521.845,364.728 523.352,370.127C524.859,375.525 526.874,379.666 529.396,382.55C531.918,385.433 534.625,386.875 537.517,386.875Z" style="fill:rgb(108,109,109);fill-rule:nonzero;"/>
                    </g>
                    <g transform="matrix(0.563049,0,0,0.138055,-132.605,-177.815)">
                        <rect x="570.367" y="266.326" width="7.844" height="131.776" style="fill:rgb(108,109,109);fill-rule:nonzero;"/>
                    </g>
                    <g transform="matrix(0.563049,0,0,0.138055,-132.605,-177.815)">
                        <path d="M610.324,401.046C605.833,401.046 601.803,398.899 598.235,394.604C594.667,390.31 591.883,384.39 589.884,376.844C587.885,369.298 586.885,360.802 586.885,351.354C586.885,342.275 587.823,333.931 589.7,326.324C591.576,318.717 594.236,312.643 597.682,308.104C601.127,303.564 605.125,301.294 609.678,301.294C614.291,301.294 618.29,303.349 621.674,307.46C625.057,311.57 627.656,317.245 629.471,324.484C631.286,331.723 632.193,340.005 632.193,349.33C632.193,351.17 632.101,352.765 631.917,354.115L594.729,354.115C594.913,361.231 595.774,367.243 597.312,372.151C598.85,377.059 600.804,380.74 603.172,383.194C605.54,385.648 608.017,386.875 610.6,386.875C616.629,386.875 621.274,381.231 624.534,369.943L631.178,376.384C629.148,383.991 626.395,390.003 622.919,394.42C619.444,398.837 615.245,401.046 610.324,401.046ZM623.888,341.232C623.765,337.305 623.212,333.379 622.227,329.453C621.243,325.527 619.69,322.214 617.567,319.514C615.445,316.815 612.784,315.465 609.585,315.465C605.894,315.465 602.772,317.827 600.219,322.551C597.666,327.275 595.99,333.502 595.19,341.232L623.888,341.232Z" style="fill:rgb(108,109,109);fill-rule:nonzero;"/>
                    </g>
                    <g transform="matrix(0.563049,0,0,0.138055,-132.605,-177.815)">
                        <path d="M661.722,401.046C657.539,401.046 653.74,398.899 650.326,394.604C646.912,390.31 644.22,384.39 642.252,376.844C640.283,369.298 639.299,360.74 639.299,351.17C639.299,341.722 640.283,333.195 642.252,325.588C644.22,317.981 646.912,312.03 650.326,307.736C653.74,303.441 657.539,301.294 661.722,301.294C665.352,301.294 668.581,302.92 671.411,306.171C674.241,309.423 676.394,313.441 677.871,318.226L678.24,318.226L677.871,305.159L677.871,266.326L685.714,266.326L685.714,398.101L678.24,398.101L678.24,384.298L677.871,384.298C676.394,388.96 674.241,392.917 671.411,396.169C668.581,399.42 665.352,401.046 661.722,401.046ZM662.645,386.875C665.413,386.875 667.982,385.402 670.35,382.458C672.719,379.513 674.626,375.341 676.071,369.943C677.517,364.544 678.24,358.286 678.24,351.17C678.24,344.054 677.517,337.796 676.071,332.398C674.626,326.999 672.719,322.827 670.35,319.883C667.982,316.938 665.413,315.465 662.645,315.465C659.938,315.465 657.385,316.938 654.986,319.883C652.587,322.827 650.664,327.03 649.219,332.49C647.773,337.95 647.05,344.176 647.05,351.17C647.05,358.164 647.773,364.391 649.219,369.851C650.664,375.31 652.587,379.513 654.986,382.458C657.385,385.402 659.938,386.875 662.645,386.875Z" style="fill:rgb(108,109,109);fill-rule:nonzero;"/>
                    </g>
                    <g transform="matrix(0.563049,0,0,0.138055,-132.605,-177.815)">
                        <path d="M718.565,401.046C713.951,401.046 709.799,398.837 706.108,394.42C702.417,390.003 699.541,383.991 697.48,376.384C695.419,368.777 694.388,360.372 694.388,351.17C694.388,341.968 695.419,333.563 697.48,325.956C699.541,318.349 702.417,312.337 706.108,307.92C709.799,303.503 713.951,301.294 718.565,301.294C723.179,301.294 727.332,303.503 731.023,307.92C734.714,312.337 737.59,318.349 739.651,325.956C741.712,333.563 742.742,341.968 742.742,351.17C742.742,360.372 741.712,368.777 739.651,376.384C737.59,383.991 734.714,390.003 731.023,394.42C727.332,398.837 723.179,401.046 718.565,401.046ZM718.565,386.875C721.457,386.875 724.148,385.433 726.639,382.55C729.131,379.666 731.13,375.525 732.638,370.127C734.145,364.728 734.898,358.409 734.898,351.17C734.898,343.931 734.145,337.612 732.638,332.214C731.13,326.815 729.131,322.674 726.639,319.791C724.148,316.907 721.457,315.465 718.565,315.465C715.674,315.465 712.967,316.907 710.445,319.791C707.923,322.674 705.908,326.815 704.401,332.214C702.893,337.612 702.14,343.931 702.14,351.17C702.14,358.409 702.893,364.728 704.401,370.127C705.908,375.525 707.923,379.666 710.445,382.55C712.967,385.433 715.674,386.875 718.565,386.875Z" style="fill:rgb(108,109,109);fill-rule:nonzero;"/>
                    </g>
                </g>
                <g transform="matrix(1.42794e-16,1.14041,-2.332,6.98297e-17,-67.8819,-135.898)">
                    <g transform="matrix(0.784316,0,0,0.784316,-9.26943,-218.524)">
                        <path d="M90.357,160.257L34.046,254.808L62.484,254.808C69.217,254.808 77.578,250.036 81.051,244.175L105.009,203.88C107.835,197.968 107.741,189.376 104.506,183.929L90.357,160.257Z" style="fill:url(#_Radial2);"/>
                    </g>
                    <g transform="matrix(0.784316,0,0,0.784316,-9.26943,-218.524)">
                        <path d="M64.617,117.187C68.089,123.026 68.089,132.592 64.617,138.453L1.371,245.338C-1.071,250.623 1.466,254.808 7.743,254.808L34.046,254.808L90.357,160.257L64.617,117.187Z" style="fill:url(#_Radial3);"/>
                    </g>
                    <g transform="matrix(0.784316,0,0,0.784316,-9.26943,-218.524)">
                        <path d="M7.743,0.81C0.984,0.81 -1.695,5.604 1.777,11.443L104.506,183.929C107.741,189.38 107.835,197.972 105.009,203.88L129.983,161.862L34.064,0.806L7.743,0.806L7.743,0.81Z" style="fill:url(#_Radial4);"/>
                    </g>
                    <g transform="matrix(0.784316,0,0,0.784316,-9.26943,-218.524)">
                        <path d="M143.887,117.187L81.051,11.443C77.578,5.604 69.217,0.81 62.484,0.81L34.06,0.81L129.98,161.866L143.887,138.453C147.363,132.592 147.363,123.026 143.887,117.187Z" style="fill:url(#_Radial5);"/>
                    </g>
                    <g transform="matrix(0.784316,0,0,0.784316,-9.26943,-218.524)">
                        <path d="M104.506,183.929L64.617,117.187C68.089,123.026 68.089,132.592 64.617,138.453L50.574,162.088L105.006,203.88C107.835,197.972 107.741,189.38 104.506,183.929Z" style="fill:url(#_Linear6);"/>
                    </g>
                    <g transform="matrix(0.784316,0,0,0.784316,-9.26943,-218.524)">
                        <path d="M143.055,116.52L80.47,10.646C77.012,4.8 68.684,0 61.979,0L7.456,0C0.725,0 -1.944,4.8 1.514,10.646L64.102,116.52C67.561,122.366 67.561,131.943 64.102,137.811L1.11,244.827C-1.323,250.119 1.205,254.309 7.456,254.309L61.979,254.309C68.684,254.309 77.012,249.531 80.47,243.663L129.203,161.25L143.055,137.808C146.517,131.943 146.517,122.366 143.055,116.52Z" style="fill:url(#_Radial7);"/>
                    </g>
                </g>
            </g>
        </g>
    </g>
    <defs>
        <radialGradient id="_Radial2" cx="0" cy="0" r="1" gradientUnits="userSpaceOnUse" gradientTransform="matrix(380.236,0,0,293.531,-5.47931,-4.39387)"><stop offset="0" style="stop-color:rgb(255,206,78);stop-opacity:1"/><stop offset="1" style="stop-color:rgb(245,195,55);stop-opacity:1"/></radialGradient>
        <radialGradient id="_Radial3" cx="0" cy="0" r="1" gradientUnits="userSpaceOnUse" gradientTransform="matrix(449.314,0,0,293.523,-5.47449,-4.35545)"><stop offset="0" style="stop-color:rgb(13,169,96);stop-opacity:1"/><stop offset="1" style="stop-color:rgb(5,146,75);stop-opacity:1"/></radialGradient>
        <radialGradient id="_Radial4" cx="0" cy="0" r="1" gradientUnits="userSpaceOnUse" gradientTransform="matrix(459.472,0,0,293.515,-5.47982,-4.54822)"><stop offset="0" style="stop-color:rgb(87,126,192);stop-opacity:1"/><stop offset="1" style="stop-color:rgb(85,126,191);stop-opacity:1"/></radialGradient>
        <radialGradient id="_Radial5" cx="0" cy="0" r="1" gradientUnits="userSpaceOnUse" gradientTransform="matrix(420.428,0,0,293.501,-5.47027,-4.43574)"><stop offset="0" style="stop-color:rgb(224,75,63);stop-opacity:1"/><stop offset="1" style="stop-color:rgb(205,56,45);stop-opacity:1"/></radialGradient>
        <linearGradient id="_Linear6" x1="0" y1="0" x2="1" y2="0" gradientUnits="userSpaceOnUse" gradientTransform="matrix(-70.71,8.65948e-15,-8.65948e-15,-70.71,119.76,160.535)"><stop offset="0" style="stop-color:rgb(35,31,32);stop-opacity:0.2"/><stop offset="1" style="stop-color:rgb(242,242,242);stop-opacity:0.25"/></linearGradient>
        <radialGradient id="_Radial7" cx="0" cy="0" r="1" gradientUnits="userSpaceOnUse" gradientTransform="matrix(178.756,0,0,102.379,72.8257,127.247)"><stop offset="0" style="stop-color:white;stop-opacity:0.1"/><stop offset="0.09" style="stop-color:white;stop-opacity:0.09"/><stop offset="1" style="stop-color:white;stop-opacity:0"/></radialGradient>
    </defs>
</svg>
