<svg width="472" height="95" viewBox="0 0 472 95" fill="none" xmlns="http://www.w3.org/2000/svg">
<title id="title">Toledo Region Logo</title>
<g id="Toledo Region Logo" clip-path="url(#clip0_38_13)">
<rect width="472" height="95" fill="white"/>
<path id="path12" d="M463.051 35.3159L479.999 18.367L463.051 1.41761V12.9296L468.487 18.367L463.051 23.8039V35.3159Z" fill="#80CC28"/>
<path id="path14" d="M32.1327 16.0646V88.1021H15.9374V16.0646H0V1.81373H47.9389V16.0646H32.1327Z" fill="#231F20"/>
<path id="path16" d="M105.06 22.4144C105.06 17.3619 102.08 13.9931 96.7685 13.9931C91.5867 13.9931 88.6071 17.3619 88.6071 22.4144V67.5008C88.6071 72.5533 91.5867 75.9216 96.7685 75.9216C102.08 75.9216 105.06 72.5533 105.06 67.5008V22.4144ZM96.7685 90.0439C81.7394 90.0439 72.281 80.1961 72.281 66.4648V23.4498C72.281 9.84775 81.7394 -9.06247e-05 96.7685 -9.06247e-05C111.928 -9.06247e-05 121.255 9.84775 121.255 23.4498V66.4648C121.255 80.1961 111.928 90.0439 96.7685 90.0439Z" fill="#231F20"/>
<path id="path18" d="M152.852 88.1021V1.81373H168.918V73.851H193.017V88.1021H152.852Z" fill="#231F20"/>
<path id="path20" d="M222.541 88.1021V1.81373H263.742V15.6777H238.606V37.0526H255.969V49.7521H238.606V73.7218H263.742V88.1021H222.541Z" fill="#231F20"/>
<path id="path22" d="M329.542 25.2631C329.542 19.046 326.951 15.6777 320.993 15.6777H313.347V74.2374H320.993C326.951 74.2374 329.542 70.8692 329.542 64.7812V25.2631ZM322.157 88.1021H297.281V1.81373H322.157C337.317 1.81373 345.738 11.5318 345.738 25.1345V65.5588C345.738 79.2901 337.317 88.1021 322.157 88.1021Z" fill="#231F20"/>
<path id="path24" d="M410.422 22.4144C410.422 17.3619 407.443 13.9931 402.13 13.9931C396.948 13.9931 393.968 17.3619 393.968 22.4144V67.5008C393.968 72.5533 396.948 75.9216 402.13 75.9216C407.443 75.9216 410.422 72.5533 410.422 67.5008V22.4144ZM402.13 90.0439C387.1 90.0439 377.643 80.1961 377.643 66.4648V23.4498C377.643 9.84775 387.1 -9.06247e-05 402.13 -9.06247e-05C417.29 -9.06247e-05 426.616 9.84775 426.616 23.4498V66.4648C426.616 80.1961 417.29 90.0439 402.13 90.0439Z" fill="#231F20"/>
</g>
<defs>
<clipPath id="clip0_38_13">
<rect width="472" height="95" fill="white"/>
</clipPath>
</defs>
</svg>
